# Blender 5.1.2
# www.blender.org
mtllib KLT_box.mtl
o KLT_box
v 0.15 -0.2 0.07500001
v 0.15 -0.2 -0.07499999
v 0.15 0.2 -0.07500001
v 0.15 -0.2 0.07500001
v 0.15 0.2 -0.07500001
v 0.15 0.2 0.07499999
v -0.15 0.2 0.07499999
v -0.15 0.2 -0.07500001
v -0.15 -0.2 -0.07499999
v -0.15 0.2 0.07499999
v -0.15 -0.2 -0.07499999
v -0.15 -0.2 0.07500001
v -0.14003000000000002 0.19003 0.07499999
v 0.14003000000000002 0.19003 0.07499999
v 0.15 0.2 0.07499999
v -0.14003000000000002 0.19003 0.07499999
v 0.15 0.2 0.07499999
v -0.15 0.2 0.07499999
v -0.14003000000000002 -0.19003 0.07500001
v -0.15 -0.2 0.07500001
v 0.14003000000000002 -0.19003 0.07500001
v 0.15 -0.2 0.07500001
v 0.14003000000000002 -0.19003 0.07500001
v -0.15 -0.2 0.07500001
v 0.15 0.2 0.07499999
v 0.14003000000000002 0.19003 0.07499999
v 0.14003000000000002 -0.19003 0.07500001
v 0.15 0.2 0.07499999
v 0.14003000000000002 -0.19003 0.07500001
v 0.15 -0.2 0.07500001
v -0.14003000000000002 0.19003 0.07499999
v -0.15 0.2 0.07499999
v -0.14003000000000002 -0.19003 0.07500001
v -0.15 0.2 0.07499999
v -0.15 -0.2 0.07500001
v -0.14003000000000002 -0.19003 0.07500001
v 0.15 0.2 -0.07500001
v 0.15 -0.2 -0.07499999
v -0.15 0.2 -0.07500001
v -0.15 -0.2 -0.07499999
v -0.15 0.2 -0.07500001
v 0.15 -0.2 -0.07499999
v 0.1 -0.2 0.07467001
v 0.1 -0.24 0.07467002
v 0.1 -0.24 0.06467002
v 0.1 -0.2 0.07467001
v 0.1 -0.24 0.06467002
v 0.1 -0.2 0.06467001
v 0.15 -0.2 0.07500001
v -0.15 -0.2 0.07500001
v 0.1 -0.2 0.07467001
v -0.1 -0.2 0.07467001
v 0.1 -0.2 0.07467001
v -0.15 -0.2 0.07500001
v -0.1 -0.24 0.07467002
v -0.1 -0.2 0.07467001
v -0.1 -0.2 0.06467001
v -0.1 -0.24 0.07467002
v -0.1 -0.2 0.06467001
v -0.1 -0.24 0.06467002
v 0.1 -0.24 0.07467002
v -0.1 -0.24 0.07467002
v -0.1 -0.24 0.06467002
v 0.1 -0.24 0.07467002
v -0.1 -0.24 0.06467002
v 0.1 -0.24 0.06467002
v 0.1 -0.2 0.06467001
v 0.1 -0.24 0.06467002
v -0.1 -0.24 0.06467002
v 0.1 -0.2 0.06467001
v -0.1 -0.24 0.06467002
v -0.1 -0.2 0.06467001
v -0.1 -0.2 0.07467001
v -0.1 -0.24 0.07467002
v 0.1 -0.24 0.07467002
v -0.1 -0.2 0.07467001
v 0.1 -0.24 0.07467002
v 0.1 -0.2 0.07467001
v 0.15 -0.2 -0.07499999
v -0.1 -0.2 0.06467001
v -0.15 -0.2 -0.07499999
v 0.1 -0.2 0.07467001
v 0.1 -0.2 0.06467001
v 0.15 -0.2 0.07500001
v 0.15 -0.2 0.07500001
v 0.1 -0.2 0.06467001
v 0.15 -0.2 -0.07499999
v -0.1 0.2 0.07382999
v -0.1 0.24 0.07382998
v -0.1 0.24 0.06382998
v -0.1 0.2 0.07382999
v -0.1 0.24 0.06382998
v -0.1 0.2 0.06382999
v 0.1 -0.2 0.06467001
v -0.1 -0.2 0.06467001
v 0.15 -0.2 -0.07499999
v -0.15 -0.2 0.07500001
v -0.15 -0.2 -0.07499999
v -0.1 -0.2 0.06467001
v -0.15 -0.2 0.07500001
v -0.1 -0.2 0.06467001
v -0.1 -0.2 0.07467001
v 0.1 0.24 0.07382998
v 0.1 0.2 0.07382999
v 0.1 0.2 0.06382999
v 0.1 0.24 0.07382998
v 0.1 0.2 0.06382999
v 0.1 0.24 0.06382998
v 0.14003000000000002 -0.19003 -0.06501998
v 0.14003000000000002 -0.19003 0.07500001
v 0.14003000000000002 0.19003 0.07499999
v 0.14003000000000002 -0.19003 -0.06501998
v 0.14003000000000002 0.19003 0.07499999
v 0.14003000000000002 0.19003 -0.06502001
v 0.15 0.2 0.07499999
v 0.1 0.2 0.06382999
v 0.1 0.2 0.07382999
v 0.1 0.24 0.06382998
v -0.1 0.24 0.06382998
v -0.1 0.24 0.07382998
v 0.1 0.24 0.06382998
v -0.1 0.24 0.07382998
v 0.1 0.24 0.07382998
v 0.1 0.24 0.06382998
v 0.1 0.2 0.06382999
v -0.1 0.2 0.06382999
v 0.1 0.24 0.06382998
v -0.1 0.2 0.06382999
v -0.1 0.24 0.06382998
v 0.15 0.2 0.07499999
v 0.1 0.2 0.07382999
v -0.1 0.2 0.07382999
v 0.15 0.2 0.07499999
v -0.1 0.2 0.07382999
v -0.15 0.2 0.07499999
v -0.1 0.24 0.07382998
v -0.1 0.2 0.07382999
v 0.1 0.2 0.07382999
v -0.1 0.24 0.07382998
v 0.1 0.2 0.07382999
v 0.1 0.24 0.07382998
v -0.15 0.2 -0.07500001
v 0.1 0.2 0.06382999
v 0.15 0.2 -0.07500001
v 0.15 0.2 0.07499999
v 0.15 0.2 -0.07500001
v 0.1 0.2 0.06382999
v -0.14003000000000002 0.19003 0.07499999
v -0.14003000000000002 0.19003 -0.06502001
v 0.14003000000000002 0.19003 -0.06502001
v -0.14003000000000002 0.19003 0.07499999
v 0.14003000000000002 0.19003 -0.06502001
v 0.14003000000000002 0.19003 0.07499999
v -0.15 0.2 0.07499999
v -0.1 0.2 0.07382999
v -0.1 0.2 0.06382999
v 0.1 0.2 0.06382999
v -0.15 0.2 -0.07500001
v -0.1 0.2 0.06382999
v -0.15 0.2 0.07499999
v -0.1 0.2 0.06382999
v -0.15 0.2 -0.07500001
v 0.14003000000000002 -0.19003 0.07500001
v 0.14003000000000002 -0.19003 -0.06501998
v -0.14003000000000002 -0.19003 -0.06501998
v 0.14003000000000002 -0.19003 0.07500001
v -0.14003000000000002 -0.19003 -0.06501998
v -0.14003000000000002 -0.19003 0.07500001
v -0.14003000000000002 -0.19003 -0.06501998
v 0.14003000000000002 -0.19003 -0.06501998
v 0.14003000000000002 0.19003 -0.06502001
v -0.14003000000000002 -0.19003 -0.06501998
v 0.14003000000000002 0.19003 -0.06502001
v -0.14003000000000002 0.19003 -0.06502001
v -0.14003000000000002 0.19003 -0.06502001
v -0.14003000000000002 0.19003 0.07499999
v -0.14003000000000002 -0.19003 0.07500001
v -0.14003000000000002 0.19003 -0.06502001
v -0.14003000000000002 -0.19003 0.07500001
v -0.14003000000000002 -0.19003 -0.06501998
vn 1.0000 -0.0000 -0.0000
vn -1.0000 -0.0000 -0.0000
vn -0.0000 -0.0000 1.0000
vn -0.0000 -0.0000 -1.0000
vn -0.0000 -1.0000 -0.0000
vn -0.0000 1.0000 -0.0000
vt 0.000000 0.000000
s 1
usemtl material_0
f 1/1/1 2/1/1 3/1/1
f 4/1/1 5/1/1 6/1/1
f 7/1/2 8/1/2 9/1/2
f 10/1/2 11/1/2 12/1/2
f 13/1/3 14/1/3 15/1/3
f 16/1/3 17/1/3 18/1/3
f 19/1/3 20/1/3 21/1/3
f 22/1/3 23/1/3 24/1/3
f 25/1/3 26/1/3 27/1/3
f 28/1/3 29/1/3 30/1/3
f 31/1/3 32/1/3 33/1/3
f 34/1/3 35/1/3 36/1/3
f 37/1/4 38/1/4 39/1/4
f 40/1/4 41/1/4 42/1/4
f 43/1/1 44/1/1 45/1/1
f 46/1/1 47/1/1 48/1/1
f 49/1/5 50/1/5 51/1/5
f 52/1/5 53/1/5 54/1/5
f 55/1/2 56/1/2 57/1/2
f 58/1/2 59/1/2 60/1/2
f 61/1/5 62/1/5 63/1/5
f 64/1/5 65/1/5 66/1/5
f 67/1/4 68/1/4 69/1/4
f 70/1/4 71/1/4 72/1/4
f 73/1/3 74/1/3 75/1/3
f 76/1/3 77/1/3 78/1/3
f 79/1/5 80/1/5 81/1/5
f 82/1/5 83/1/5 84/1/5
f 85/1/5 86/1/5 87/1/5
f 88/1/2 89/1/2 90/1/2
f 91/1/2 92/1/2 93/1/2
f 94/1/5 95/1/5 96/1/5
f 97/1/5 98/1/5 99/1/5
f 100/1/5 101/1/5 102/1/5
f 103/1/1 104/1/1 105/1/1
f 106/1/1 107/1/1 108/1/1
f 109/1/2 110/1/2 111/1/2
f 112/1/2 113/1/2 114/1/2
f 115/1/6 116/1/6 117/1/6
f 118/1/6 119/1/6 120/1/6
f 121/1/6 122/1/6 123/1/6
f 124/1/4 125/1/4 126/1/4
f 127/1/4 128/1/4 129/1/4
f 130/1/6 131/1/6 132/1/6
f 133/1/6 134/1/6 135/1/6
f 136/1/3 137/1/3 138/1/3
f 139/1/3 140/1/3 141/1/3
f 142/1/6 143/1/6 144/1/6
f 145/1/6 146/1/6 147/1/6
f 148/1/5 149/1/5 150/1/5
f 151/1/5 152/1/5 153/1/5
f 154/1/6 155/1/6 156/1/6
f 157/1/6 158/1/6 159/1/6
f 160/1/6 161/1/6 162/1/6
f 163/1/6 164/1/6 165/1/6
f 166/1/6 167/1/6 168/1/6
f 169/1/3 170/1/3 171/1/3
f 172/1/3 173/1/3 174/1/3
f 175/1/1 176/1/1 177/1/1
f 178/1/1 179/1/1 180/1/1
